# Blender 4.2.0
# www.blender.org
mtllib floor_two.mtl
o Cube
v -6.176723 -1.000000 24.356253
v -6.176723 1.000000 24.356253
v -5.300741 -1.000000 -24.356251
v -5.300741 1.000000 -24.356251
v 6.176723 -1.000000 24.356253
v 6.176723 1.000000 24.356253
v 6.176723 -1.000000 -24.356251
v 6.176723 1.000000 -24.356251
v -6.176723 -1.000000 0.000000
v -6.176723 1.000000 0.000000
v 5.357375 -1.000000 0.000000
v 5.357375 1.000000 0.000000
v -6.176723 -1.000000 12.177666
v 6.203711 1.000000 12.177666
v -6.176723 1.000000 12.177666
v 6.203711 -1.000000 12.177666
v -6.176723 -1.000000 18.265148
v 6.176723 1.000000 18.265148
v -6.176723 1.000000 18.265148
v 6.176723 -1.000000 18.265148
v 0.000000 -1.000000 -24.356251
v 0.000000 1.000000 -24.356251
v 0.000000 -1.000000 24.356253
v 0.000000 1.000000 24.356253
v 0.000000 1.000000 0.000000
v 0.000000 -1.000000 0.000000
v 0.000000 1.000000 12.177666
v 0.000000 -1.000000 12.177666
v 0.000000 1.000000 18.265148
v 0.000000 -1.000000 18.265148
v -6.563547 -1.000000 21.310699
v 5.945244 1.000000 21.310699
v -6.563547 1.000000 21.310699
v 5.945244 -1.000000 21.310699
v 0.000000 1.000000 21.310699
v 0.000000 -1.000000 21.310699
v -5.837574 1.000000 -12.178126
v 5.623935 -1.000000 -12.178126
v -5.837574 -1.000000 -12.178126
v 5.623935 1.000000 -12.178126
v 0.000000 -1.000000 -12.178126
v 0.000000 1.000000 -12.178126
v -6.334314 -1.000000 -6.089063
v 6.889476 1.000000 -6.089063
v 0.000000 -1.000000 -6.089063
v 0.000000 0.909923 -6.089063
v -6.334314 1.000000 -6.089063
v 6.889476 -1.000000 -6.089063
v -6.176723 1.000000 5.992951
v 6.176723 -1.000000 5.992951
v -6.176723 -1.000000 5.992951
v 6.176723 1.000000 5.992951
v 0.000000 -1.000000 5.992951
v 0.000000 1.000000 5.992951
v -6.176723 1.000000 -18.398579
v 6.624994 -1.000000 -18.398579
v -6.176723 -1.000000 -18.398579
v 6.624994 1.000000 -18.398579
v 0.000000 -1.000000 -18.398579
v 0.000000 0.950949 -18.398579
v -6.176723 1.000000 -21.508162
v 6.176723 -1.000000 -21.508162
v -6.176723 -1.000000 -21.508162
v 6.176723 1.000000 -21.508162
v 0.000000 -1.000000 -21.508162
v 0.000000 1.000000 -21.508162
v -6.176723 -1.000000 -15.288353
v 6.176723 1.000000 -15.288353
v 0.000000 -1.000000 -15.288353
v 0.000000 0.958974 -15.288353
v -6.176723 1.000000 -15.288353
v 6.176723 -1.000000 -15.288353
v -6.176723 -1.000000 -3.044531
v 6.176723 1.000000 -3.044531
v 0.000000 -1.000000 -3.044531
v 0.000000 1.000000 -3.044531
v -6.176723 1.000000 -3.044531
v 6.176723 -1.000000 -3.044531
v -6.176723 1.000000 -9.133595
v 6.176723 -1.000000 -9.133595
v -6.176723 -1.000000 -9.133595
v 6.176723 1.000000 -9.133595
v 0.000000 -1.000000 -9.133595
v 0.000000 1.000000 -9.133595
v -6.738168 1.000000 2.996476
v 6.176723 -1.000000 2.996476
v -6.738168 -1.000000 2.996476
v 6.176723 1.000000 2.996476
v 0.000000 -1.000000 2.996476
v 0.000000 1.000000 2.996476
v -6.176723 -1.000000 9.085308
v 6.939333 1.000000 9.085308
v 0.000000 -1.000000 9.085308
v 0.000000 1.000000 9.085308
v -6.176723 1.000000 9.085308
v 6.939333 -1.000000 9.085308
v -5.720100 1.000000 15.221406
v 6.827470 -1.000000 15.221406
v -5.720100 -1.000000 15.221406
v 6.827470 1.000000 15.221406
v 0.000000 -1.000000 15.221406
v 0.000000 0.958974 15.221406
v -3.088362 -1.000000 -24.356251
v -3.088362 1.000000 24.356253
v -3.088362 -1.000000 0.000000
v -3.088362 -1.000000 12.177666
v -3.088362 -1.000000 18.265148
v -3.088362 1.000000 -24.356251
v -3.088362 -1.000000 24.356253
v -3.088362 0.909923 0.000000
v -3.088362 1.000000 12.177666
v -3.088362 1.000000 18.265148
v -3.088362 -1.000000 21.310699
v -3.088362 1.000000 21.310699
v -3.088362 -1.000000 -12.178126
v -3.088362 0.950949 -12.178126
v -3.088362 -1.000000 -6.089063
v -3.088362 1.000000 -6.089063
v -3.088362 -1.000000 5.992951
v -3.088362 1.000000 5.992951
v -3.088362 1.000000 -18.398579
v -3.088362 -1.000000 -18.398579
v -3.088362 -1.000000 -21.508162
v -3.088362 1.000000 -21.508162
v -3.088362 1.000000 -15.288353
v -3.088362 -1.000000 -15.288353
v -3.088362 -1.000000 -3.044531
v -3.088362 1.000000 -3.044531
v -3.088362 1.000000 -9.133595
v -3.088362 -1.000000 -9.133595
v -3.088362 1.000000 2.996476
v -3.088362 -1.000000 2.996476
v -3.088362 -1.000000 9.085308
v -3.088362 0.950949 9.085308
v -3.088362 -1.000000 15.221406
v -3.088362 0.950949 15.221406
v 3.088362 1.000000 -24.356251
v 3.088362 -1.000000 24.356253
v 3.088362 1.000000 0.000000
v 3.088362 1.000000 12.177666
v 3.088362 0.950949 18.265148
v 3.088362 -1.000000 -24.356251
v 3.088362 1.000000 24.356253
v 3.088362 -1.000000 0.000000
v 3.088362 -1.000000 12.177666
v 3.088362 -1.000000 18.265148
v 3.088362 1.000000 21.310699
v 3.088362 -1.000000 21.310699
v 3.088362 0.950949 -12.178126
v 3.088362 -1.000000 -12.178126
v 3.088362 1.000000 -6.089063
v 3.088362 -1.000000 -6.089063
v 3.088362 0.958974 5.992951
v 3.088362 -1.000000 5.992951
v 3.088362 -1.000000 -18.398579
v 3.088362 1.000000 -18.398579
v 3.088362 1.000000 -21.508162
v 3.088362 -1.000000 -21.508162
v 3.088362 -1.000000 -15.288353
v 3.088362 1.000000 -15.288353
v 3.088362 1.000000 -3.044531
v 3.088362 -1.000000 -3.044531
v 3.088362 -1.000000 -9.133595
v 3.088362 1.000000 -9.133595
v 3.088362 -1.000000 2.996476
v 3.088362 1.000000 2.996476
v 3.088362 0.950949 9.085308
v 3.088362 -1.000000 9.085308
v 3.088362 1.000000 15.221406
v 3.088362 -1.000000 15.221406
vn -0.9558 -0.0000 -0.2940
vn -0.0000 -0.0000 -1.0000
vn 0.9971 -0.0000 -0.0758
vn -0.0000 -0.0000 1.0000
vn -0.0000 -1.0000 -0.0000
vn -0.0000 1.0000 -0.0000
vn 0.0146 0.9998 0.0148
vn 0.9656 -0.0000 0.2599
vn -0.9829 -0.0000 -0.1842
vn -0.9889 -0.0000 0.1484
vn 0.0079 0.9999 -0.0079
vn 0.9729 -0.0000 0.2314
vn -0.9920 -0.0000 -0.1260
vn 0.0086 0.9999 -0.0074
vn 0.9779 -0.0000 0.2091
vn 0.0013 1.0000 0.0013
vn 0.0079 0.9999 -0.0081
vn -0.9920 -0.0000 0.1260
vn 0.9971 -0.0000 0.0758
vn 0.9846 -0.0000 0.1750
vn 0.0084 0.9999 0.0074
vn -0.9939 -0.0000 -0.1107
vn -0.9987 -0.0000 0.0517
vn -0.0146 0.9998 0.0148
vn 0.9737 -0.0000 -0.2279
vn 0.0066 1.0000 0.0068
vn 1.0000 -0.0000 -0.0000
vn -1.0000 -0.0000 -0.0000
vn 0.9898 -0.0000 -0.1427
vn -0.0079 0.9999 0.0079
vn -0.9941 -0.0000 0.1084
vn 0.9898 -0.0000 0.1427
vn -0.0146 0.9999 -0.0013
vn -0.0146 0.9998 -0.0148
vn 0.9737 -0.0000 0.2279
vn 0.0084 0.9999 -0.0076
vn 0.9839 -0.0000 -0.1786
vn -0.9987 -0.0000 -0.0517
vn 0.0134 0.9998 -0.0138
vn 0.9646 -0.0000 -0.2638
vn -0.9829 -0.0000 0.1842
vn 0.0146 0.9999 0.0013
vn 0.9709 -0.0000 -0.2394
vn 0.0079 0.9999 0.0079
vn -0.0066 1.0000 0.0067
vn 0.9796 -0.0000 -0.2008
vn 0.0086 0.9999 0.0074
vn -0.9889 -0.0000 -0.1484
vn -0.0013 0.9999 0.0148
vn -0.0146 0.9998 -0.0150
vn -0.0079 0.9999 -0.0081
vn 0.0146 0.9998 -0.0148
vn 0.0146 0.9999 -0.0013
vn -0.0013 1.0000 0.0013
vn -0.0013 0.9999 -0.0148
vn -0.0079 0.9999 -0.0079
vn -0.0130 0.9999 0.0029
vn -0.0087 0.9999 -0.0073
vn -0.0066 1.0000 0.0068
vn -0.0087 0.9999 0.0071
vn -0.0082 0.9999 -0.0084
vn -0.0070 0.9999 -0.0088
vn -0.0072 0.9999 0.0073
vt 0.375000 0.235383
vt 0.625000 0.235383
vt 0.625000 0.250000
vt 0.375000 0.250000
vt 0.375000 0.437500
vt 0.625000 0.437500
vt 0.625000 0.500000
vt 0.375000 0.500000
vt 0.375000 0.734370
vt 0.625000 0.734370
vt 0.625000 0.750000
vt 0.375000 0.750000
vt 0.375000 0.937500
vt 0.625000 0.937500
vt 0.625000 1.000000
vt 0.375000 1.000000
vt 0.312500 0.734370
vt 0.312500 0.750000
vt 0.812500 0.734370
vt 0.875000 0.734370
vt 0.875000 0.750000
vt 0.812500 0.750000
vt 0.812500 0.609375
vt 0.875000 0.609375
vt 0.875000 0.625000
vt 0.812500 0.625000
vt 0.312500 0.609375
vt 0.375000 0.609375
vt 0.375000 0.625000
vt 0.312500 0.625000
vt 0.625000 0.609375
vt 0.625000 0.625000
vt 0.375000 0.109622
vt 0.625000 0.109622
vt 0.625000 0.125000
vt 0.375000 0.125000
vt 0.375000 0.046881
vt 0.625000 0.046881
vt 0.625000 0.062502
vt 0.375000 0.062502
vt 0.812500 0.671627
vt 0.875000 0.671627
vt 0.875000 0.687498
vt 0.812500 0.687498
vt 0.312500 0.671627
vt 0.375000 0.671627
vt 0.375000 0.687498
vt 0.312500 0.687498
vt 0.625000 0.671627
vt 0.625000 0.687498
vt 0.375000 0.015630
vt 0.625000 0.015630
vt 0.625000 0.031260
vt 0.375000 0.031260
vt 0.812500 0.703119
vt 0.875000 0.703119
vt 0.875000 0.718740
vt 0.812500 0.718740
vt 0.312500 0.703119
vt 0.375000 0.703119
vt 0.375000 0.718740
vt 0.312500 0.718740
vt 0.625000 0.703119
vt 0.625000 0.718740
vt 0.187500 0.703119
vt 0.250000 0.703119
vt 0.250000 0.718740
vt 0.187500 0.718740
vt 0.687500 0.703119
vt 0.750000 0.703119
vt 0.750000 0.718740
vt 0.687500 0.718740
vt 0.187500 0.671627
vt 0.250000 0.671627
vt 0.250000 0.687498
vt 0.187500 0.687498
vt 0.687500 0.671627
vt 0.750000 0.671627
vt 0.750000 0.687498
vt 0.687500 0.687498
vt 0.187500 0.609375
vt 0.250000 0.609375
vt 0.250000 0.625000
vt 0.187500 0.625000
vt 0.687500 0.609375
vt 0.750000 0.609375
vt 0.750000 0.625000
vt 0.687500 0.625000
vt 0.687500 0.734370
vt 0.750000 0.734370
vt 0.750000 0.750000
vt 0.687500 0.750000
vt 0.187500 0.734370
vt 0.250000 0.734370
vt 0.250000 0.750000
vt 0.187500 0.750000
vt 0.375000 0.812500
vt 0.625000 0.812500
vt 0.625000 0.875000
vt 0.375000 0.875000
vt 0.375000 0.312500
vt 0.625000 0.312500
vt 0.625000 0.375000
vt 0.375000 0.375000
vt 0.375000 0.000000
vt 0.625000 0.000000
vt 0.687500 0.546538
vt 0.750000 0.546538
vt 0.750000 0.562500
vt 0.687500 0.562500
vt 0.187500 0.546538
vt 0.250000 0.546538
vt 0.250000 0.562500
vt 0.187500 0.562500
vt 0.375000 0.546538
vt 0.625000 0.546538
vt 0.625000 0.562500
vt 0.375000 0.562500
vt 0.312500 0.546538
vt 0.312500 0.562500
vt 0.812500 0.546538
vt 0.875000 0.546538
vt 0.875000 0.562500
vt 0.812500 0.562500
vt 0.375000 0.171875
vt 0.625000 0.171875
vt 0.625000 0.187500
vt 0.375000 0.187500
vt 0.375000 0.140625
vt 0.625000 0.140625
vt 0.625000 0.156250
vt 0.375000 0.156250
vt 0.687500 0.578125
vt 0.750000 0.578125
vt 0.750000 0.593750
vt 0.687500 0.593750
vt 0.187500 0.578125
vt 0.250000 0.578125
vt 0.250000 0.593750
vt 0.187500 0.593750
vt 0.375000 0.578125
vt 0.625000 0.578125
vt 0.625000 0.593750
vt 0.375000 0.593750
vt 0.312500 0.578125
vt 0.312500 0.593750
vt 0.812500 0.578125
vt 0.875000 0.578125
vt 0.875000 0.593750
vt 0.812500 0.593750
vt 0.687500 0.640378
vt 0.750000 0.640378
vt 0.750000 0.655757
vt 0.687500 0.655757
vt 0.187500 0.640378
vt 0.250000 0.640378
vt 0.250000 0.655757
vt 0.187500 0.655757
vt 0.375000 0.640378
vt 0.625000 0.640378
vt 0.625000 0.655757
vt 0.375000 0.655757
vt 0.312500 0.640378
vt 0.312500 0.655757
vt 0.812500 0.640378
vt 0.875000 0.640378
vt 0.875000 0.655757
vt 0.812500 0.655757
vt 0.375000 0.078373
vt 0.625000 0.078373
vt 0.625000 0.094243
vt 0.375000 0.094243
vt 0.812500 0.514617
vt 0.875000 0.514617
vt 0.875000 0.530576
vt 0.812500 0.530576
vt 0.312500 0.514617
vt 0.375000 0.514617
vt 0.375000 0.530576
vt 0.312500 0.530576
vt 0.625000 0.514617
vt 0.625000 0.530576
vt 0.187500 0.514617
vt 0.250000 0.514617
vt 0.250000 0.530576
vt 0.187500 0.530576
vt 0.687500 0.514617
vt 0.750000 0.514617
vt 0.750000 0.530576
vt 0.687500 0.530576
vt 0.375000 0.203462
vt 0.625000 0.203462
vt 0.625000 0.219424
vt 0.375000 0.219424
vt 0.687500 0.500000
vt 0.750000 0.500000
vt 0.187500 0.500000
vt 0.250000 0.500000
vt 0.312500 0.500000
vt 0.812500 0.500000
vt 0.875000 0.500000
vt 0.125000 0.687498
vt 0.125000 0.703119
vt 0.125000 0.655757
vt 0.125000 0.671627
vt 0.125000 0.625000
vt 0.125000 0.640378
vt 0.125000 0.562500
vt 0.125000 0.578125
vt 0.125000 0.593750
vt 0.125000 0.609375
vt 0.125000 0.530576
vt 0.125000 0.546538
vt 0.125000 0.500000
vt 0.125000 0.514617
vt 0.125000 0.718740
vt 0.125000 0.734370
vt 0.125000 0.750000
s 0
f 63/1/1 61/2/1 4/3/1 3/4/1
f 142/5/2 137/6/2 8/7/2 7/8/2
f 34/9/3 32/10/3 6/11/3 5/12/3
f 109/13/4 104/14/4 2/15/4 1/16/4
f 148/17/5 34/9/5 5/12/5 138/18/5
f 114/19/6 33/20/6 2/21/6 104/22/6
f 128/23/7 77/24/7 10/25/7 110/26/7
f 162/27/5 78/28/5 11/29/5 144/30/5
f 78/28/8 74/31/8 12/32/8 11/29/8
f 87/33/9 85/34/9 10/35/9 9/36/9
f 99/37/10 97/38/10 15/39/10 13/40/10
f 134/41/11 95/42/11 15/43/11 111/44/11
f 168/45/5 96/46/5 16/47/5 145/48/5
f 96/46/12 92/49/12 14/50/12 16/47/12
f 31/51/13 33/52/13 19/53/13 17/54/13
f 136/55/14 97/56/14 19/57/14 112/58/14
f 170/59/5 98/60/5 20/61/5 146/62/5
f 98/60/15 100/63/15 18/64/15 20/61/15
f 135/65/5 101/66/5 30/67/5 107/68/5
f 169/69/16 102/70/16 29/71/16 141/72/16
f 133/73/5 93/74/5 28/75/5 106/76/5
f 167/77/11 94/78/11 27/79/11 140/80/11
f 127/81/5 75/82/5 26/83/5 105/84/5
f 161/85/6 76/86/6 25/87/6 139/88/6
f 147/89/6 35/90/6 24/91/6 143/92/6
f 113/93/5 36/94/5 23/95/5 109/96/5
f 138/97/4 143/98/4 24/99/4 23/100/4
f 103/101/2 108/102/2 22/103/2 21/104/2
f 107/68/5 30/67/5 36/94/5 113/93/5
f 141/72/17 29/71/17 35/90/17 147/89/17
f 1/105/18 2/106/18 33/52/18 31/51/18
f 112/58/6 19/57/6 33/20/6 114/19/6
f 146/62/5 20/61/5 34/9/5 148/17/5
f 20/61/19 18/64/19 32/10/19 34/9/19
f 160/107/16 70/108/16 42/109/16 149/110/16
f 126/111/5 69/112/5 41/113/5 115/114/5
f 72/115/20 68/116/20 40/117/20 38/118/20
f 159/119/5 72/115/5 38/118/5 150/120/5
f 125/121/21 71/122/21 37/123/21 116/124/21
f 81/125/22 79/126/22 37/127/22 39/128/22
f 73/129/23 77/130/23 47/131/23 43/132/23
f 164/133/24 84/134/24 46/135/24 151/136/24
f 130/137/5 83/138/5 45/139/5 117/140/5
f 80/141/25 82/142/25 44/143/25 48/144/25
f 163/145/5 80/141/5 48/144/5 152/146/5
f 129/147/6 79/148/6 47/149/6 118/150/6
f 166/151/26 90/152/26 54/153/26 153/154/26
f 132/155/5 89/156/5 53/157/5 119/158/5
f 86/159/27 88/160/27 52/161/27 50/162/27
f 165/163/5 86/159/5 50/162/5 154/164/5
f 131/165/6 85/166/6 49/167/6 120/168/6
f 91/169/28 95/170/28 49/171/28 51/172/28
f 124/173/6 61/174/6 55/175/6 121/176/6
f 158/177/5 62/178/5 56/179/5 155/180/5
f 62/178/29 64/181/29 58/182/29 56/179/29
f 123/183/5 65/184/5 59/185/5 122/186/5
f 157/187/30 66/188/30 60/189/30 156/190/30
f 67/191/28 71/192/28 55/193/28 57/194/28
f 137/195/6 22/196/6 66/188/6 157/187/6
f 103/197/5 21/198/5 65/184/5 123/183/5
f 7/8/27 8/7/27 64/181/27 62/178/27
f 142/199/5 7/8/5 62/178/5 158/177/5
f 108/200/6 4/201/6 61/174/6 124/173/6
f 57/194/28 55/193/28 61/2/28 63/1/28
f 39/128/31 37/127/31 71/192/31 67/191/31
f 121/176/6 55/175/6 71/122/6 125/121/6
f 155/180/5 56/179/5 72/115/5 159/119/5
f 56/179/32 58/182/32 68/116/32 72/115/32
f 122/186/5 59/185/5 69/112/5 126/111/5
f 156/190/33 60/189/33 70/108/33 160/107/33
f 9/36/28 10/35/28 77/130/28 73/129/28
f 151/136/34 46/135/34 76/86/34 161/85/34
f 117/140/5 45/139/5 75/82/5 127/81/5
f 48/144/35 44/143/35 74/31/35 78/28/35
f 152/146/5 48/144/5 78/28/5 162/27/5
f 118/150/6 47/149/6 77/24/6 128/23/6
f 116/124/36 37/123/36 79/148/36 129/147/36
f 150/120/5 38/118/5 80/141/5 163/145/5
f 38/118/37 40/117/37 82/142/37 80/141/37
f 115/114/5 41/113/5 83/138/5 130/137/5
f 149/110/17 42/109/17 84/134/17 164/133/17
f 43/132/38 47/131/38 79/126/38 81/125/38
f 110/26/39 10/25/39 85/166/39 131/165/39
f 144/30/5 11/29/5 86/159/5 165/163/5
f 11/29/40 12/32/40 88/160/40 86/159/40
f 105/84/5 26/83/5 89/156/5 132/155/5
f 139/88/6 25/87/6 90/152/6 166/151/6
f 51/172/41 49/171/41 85/34/41 87/33/41
f 13/40/28 15/39/28 95/170/28 91/169/28
f 153/154/42 54/153/42 94/78/42 167/77/42
f 119/158/5 53/157/5 93/74/5 133/73/5
f 50/162/43 52/161/43 92/49/43 96/46/43
f 154/164/5 50/162/5 96/46/5 168/45/5
f 120/168/44 49/167/44 95/42/44 134/41/44
f 140/80/45 27/79/45 102/70/45 169/69/45
f 106/76/5 28/75/5 101/66/5 135/65/5
f 16/47/46 14/50/46 100/63/46 98/60/46
f 145/48/5 16/47/5 98/60/5 170/59/5
f 111/44/47 15/43/47 97/56/47 136/55/47
f 17/54/48 19/53/48 97/38/48 99/37/48
f 27/79/49 111/44/49 136/55/49 102/70/49
f 13/202/5 106/76/5 135/65/5 99/203/5
f 54/153/30 120/168/30 134/41/30 94/78/30
f 51/204/5 119/158/5 133/73/5 91/205/5
f 9/206/5 105/84/5 132/155/5 87/207/5
f 25/87/50 110/26/50 131/165/50 90/152/50
f 39/208/5 115/114/5 130/137/5 81/209/5
f 42/109/51 116/124/51 129/147/51 84/134/51
f 46/135/52 118/150/52 128/23/52 76/86/52
f 43/210/5 117/140/5 127/81/5 73/211/5
f 57/212/5 122/186/5 126/111/5 67/213/5
f 60/189/53 121/176/53 125/121/53 70/108/53
f 22/196/6 108/200/6 124/173/6 66/188/6
f 3/214/5 103/197/5 123/183/5 63/215/5
f 63/215/5 123/183/5 122/186/5 57/212/5
f 66/188/44 124/173/44 121/176/44 60/189/44
f 90/152/6 131/165/6 120/168/6 54/153/6
f 87/207/5 132/155/5 119/158/5 51/204/5
f 84/134/7 129/147/7 118/150/7 46/135/7
f 81/209/5 130/137/5 117/140/5 43/210/5
f 70/108/54 125/121/54 116/124/54 42/109/54
f 67/213/5 126/111/5 115/114/5 39/208/5
f 29/71/6 112/58/6 114/19/6 35/90/6
f 17/216/5 107/68/5 113/93/5 31/217/5
f 3/4/2 4/3/2 108/102/2 103/101/2
f 31/217/5 113/93/5 109/96/5 1/218/5
f 73/211/5 127/81/5 105/84/5 9/206/5
f 91/205/5 133/73/5 106/76/5 13/202/5
f 99/203/5 135/65/5 107/68/5 17/216/5
f 102/70/55 136/55/55 112/58/55 29/71/55
f 94/78/56 134/41/56 111/44/56 27/79/56
f 76/86/24 128/23/24 110/26/24 25/87/24
f 35/90/6 114/19/6 104/22/6 24/91/6
f 23/100/4 24/99/4 104/14/4 109/13/4
f 28/75/5 145/48/5 170/59/5 101/66/5
f 14/50/6 140/80/6 169/69/6 100/63/6
f 53/157/5 154/164/5 168/45/5 93/74/5
f 52/161/57 153/154/57 167/77/57 92/49/57
f 12/32/6 139/88/6 166/151/6 88/160/6
f 26/83/5 144/30/5 165/163/5 89/156/5
f 40/117/58 149/110/58 164/133/58 82/142/58
f 41/113/5 150/120/5 163/145/5 83/138/5
f 45/139/5 152/146/5 162/27/5 75/82/5
f 44/143/6 151/136/6 161/85/6 74/31/6
f 58/182/6 156/190/6 160/107/6 68/116/6
f 59/185/5 155/180/5 159/119/5 69/112/5
f 21/198/5 142/199/5 158/177/5 65/184/5
f 8/7/6 137/195/6 157/187/6 64/181/6
f 64/181/6 157/187/6 156/190/6 58/182/6
f 65/184/5 158/177/5 155/180/5 59/185/5
f 89/156/5 165/163/5 154/164/5 53/157/5
f 88/160/59 166/151/59 153/154/59 52/161/59
f 83/138/5 163/145/5 152/146/5 45/139/5
f 82/142/6 164/133/6 151/136/6 44/143/6
f 69/112/5 159/119/5 150/120/5 41/113/5
f 68/116/60 160/107/60 149/110/60 40/117/60
f 30/67/5 146/62/5 148/17/5 36/94/5
f 18/64/61 141/72/61 147/89/61 32/10/61
f 5/12/4 6/11/4 143/98/4 138/97/4
f 32/10/6 147/89/6 143/92/6 6/11/6
f 74/31/6 161/85/6 139/88/6 12/32/6
f 92/49/62 167/77/62 140/80/62 14/50/62
f 100/63/63 169/69/63 141/72/63 18/64/63
f 101/66/5 170/59/5 146/62/5 30/67/5
f 93/74/5 168/45/5 145/48/5 28/75/5
f 75/82/5 162/27/5 144/30/5 26/83/5
f 36/94/5 148/17/5 138/18/5 23/95/5
f 21/104/2 22/103/2 137/6/2 142/5/2
